<mxfile host="app.diagrams.net" modified="2024-03-22T09:56:55.708Z" agent="Mozilla/5.0 (Windows NT 10.0; Win64; x64) AppleWebKit/537.36 (KHTML, like Gecko) Chrome/122.0.0.0 Safari/537.36 Edg/122.0.0.0" etag="uyKsG9mSS55vZvXdeaNS" version="24.0.7" type="github">
  <diagram name="第 1 页" id="Vf4zEeg3gPnlkFFySdvX">
    <mxGraphModel dx="906" dy="613" grid="1" gridSize="10" guides="1" tooltips="1" connect="1" arrows="1" fold="1" page="1" pageScale="1" pageWidth="827" pageHeight="1169" math="0" shadow="0">
      <root>
        <mxCell id="0" />
        <mxCell id="1" parent="0" />
        <mxCell id="HGWVsGoKHaOymZBXeWyw-1" value="DevOps云" style="rounded=0;whiteSpace=wrap;html=1;" vertex="1" parent="1">
          <mxGeometry y="40" width="480" height="40" as="geometry" />
        </mxCell>
        <mxCell id="HGWVsGoKHaOymZBXeWyw-2" value="开始" style="strokeWidth=2;html=1;shape=mxgraph.flowchart.start_1;whiteSpace=wrap;" vertex="1" parent="1">
          <mxGeometry x="80" y="140" width="90" height="40" as="geometry" />
        </mxCell>
        <mxCell id="HGWVsGoKHaOymZBXeWyw-3" value="添加/导入FAQ知识库" style="rounded=1;whiteSpace=wrap;html=1;absoluteArcSize=1;arcSize=14;strokeWidth=2;" vertex="1" parent="1">
          <mxGeometry x="75" y="240" width="100" height="40" as="geometry" />
        </mxCell>
        <mxCell id="HGWVsGoKHaOymZBXeWyw-4" value="DevOps云" style="rounded=0;whiteSpace=wrap;html=1;" vertex="1" parent="1">
          <mxGeometry x="480" y="40" width="340" height="40" as="geometry" />
        </mxCell>
      </root>
    </mxGraphModel>
  </diagram>
</mxfile>
